<mxfile host="app.diagrams.net" modified="2023-09-25T00:50:38.534Z" agent="Mozilla/5.0 (Windows NT 10.0; Win64; x64; rv:109.0) Gecko/20100101 Firefox/117.0" etag="TZJQJZ4cF7oKPOxLyAO8" version="21.8.2" type="device">
  <diagram name="Page-1" id="VFi8vVqz5H-AVK_05t4a">
    <mxGraphModel dx="1615" dy="828" grid="1" gridSize="10" guides="1" tooltips="1" connect="1" arrows="1" fold="1" page="1" pageScale="1" pageWidth="850" pageHeight="1100" math="0" shadow="0">
      <root>
        <mxCell id="0" />
        <mxCell id="1" parent="0" />
        <mxCell id="EEQD98YzqtHimO_jsbl0-1" value="Spendr Database" style="swimlane;whiteSpace=wrap;html=1;fillColor=#e1d5e7;strokeColor=#9673a6;" vertex="1" parent="1">
          <mxGeometry x="270" y="600" width="200" height="190" as="geometry" />
        </mxCell>
        <mxCell id="EEQD98YzqtHimO_jsbl0-38" value="&lt;div&gt;Database&lt;/div&gt;&lt;div&gt;PostgreDB&lt;br&gt;&lt;/div&gt;" style="rounded=0;whiteSpace=wrap;html=1;fillColor=#e1d5e7;strokeColor=#9673a6;" vertex="1" parent="EEQD98YzqtHimO_jsbl0-1">
          <mxGeometry x="35" y="90" width="120" height="60" as="geometry" />
        </mxCell>
        <mxCell id="EEQD98YzqtHimO_jsbl0-2" value="Spendr Frontend" style="swimlane;whiteSpace=wrap;html=1;fillColor=#dae8fc;strokeColor=#6c8ebf;" vertex="1" parent="1">
          <mxGeometry x="270" y="230" width="200" height="350" as="geometry" />
        </mxCell>
        <mxCell id="EEQD98YzqtHimO_jsbl0-4" value="Browser" style="rounded=0;whiteSpace=wrap;html=1;" vertex="1" parent="EEQD98YzqtHimO_jsbl0-2">
          <mxGeometry x="40" y="50" width="120" height="60" as="geometry" />
        </mxCell>
        <mxCell id="EEQD98YzqtHimO_jsbl0-5" value="&lt;div&gt;UI Components&lt;/div&gt;&lt;div&gt;(React JS)&lt;br&gt;&lt;/div&gt;" style="rounded=0;whiteSpace=wrap;html=1;fillColor=#dae8fc;strokeColor=#6c8ebf;" vertex="1" parent="EEQD98YzqtHimO_jsbl0-2">
          <mxGeometry x="40" y="150" width="120" height="60" as="geometry" />
        </mxCell>
        <mxCell id="EEQD98YzqtHimO_jsbl0-8" value="" style="endArrow=classic;html=1;rounded=0;entryX=0.75;entryY=1;entryDx=0;entryDy=0;exitX=0.75;exitY=0;exitDx=0;exitDy=0;" edge="1" parent="EEQD98YzqtHimO_jsbl0-2" source="EEQD98YzqtHimO_jsbl0-5" target="EEQD98YzqtHimO_jsbl0-4">
          <mxGeometry width="50" height="50" relative="1" as="geometry">
            <mxPoint x="140" y="210" as="sourcePoint" />
            <mxPoint x="190" y="160" as="targetPoint" />
          </mxGeometry>
        </mxCell>
        <mxCell id="EEQD98YzqtHimO_jsbl0-9" value="Deploy" style="edgeLabel;html=1;align=center;verticalAlign=middle;resizable=0;points=[];" vertex="1" connectable="0" parent="EEQD98YzqtHimO_jsbl0-8">
          <mxGeometry x="0.1167" relative="1" as="geometry">
            <mxPoint as="offset" />
          </mxGeometry>
        </mxCell>
        <mxCell id="EEQD98YzqtHimO_jsbl0-10" value="" style="endArrow=classic;html=1;rounded=0;entryX=0.25;entryY=0;entryDx=0;entryDy=0;exitX=0.25;exitY=1;exitDx=0;exitDy=0;" edge="1" parent="EEQD98YzqtHimO_jsbl0-2" source="EEQD98YzqtHimO_jsbl0-4" target="EEQD98YzqtHimO_jsbl0-5">
          <mxGeometry width="50" height="50" relative="1" as="geometry">
            <mxPoint x="140" y="210" as="sourcePoint" />
            <mxPoint x="190" y="160" as="targetPoint" />
          </mxGeometry>
        </mxCell>
        <mxCell id="EEQD98YzqtHimO_jsbl0-11" value="Interact" style="edgeLabel;html=1;align=center;verticalAlign=middle;resizable=0;points=[];" vertex="1" connectable="0" parent="EEQD98YzqtHimO_jsbl0-10">
          <mxGeometry x="-0.0833" relative="1" as="geometry">
            <mxPoint as="offset" />
          </mxGeometry>
        </mxCell>
        <mxCell id="EEQD98YzqtHimO_jsbl0-13" value="Vertical Container" style="swimlane;whiteSpace=wrap;html=1;fillColor=#ffe6cc;strokeColor=#d79b00;" vertex="1" parent="1">
          <mxGeometry x="510" y="230" width="700" height="560" as="geometry" />
        </mxCell>
        <mxCell id="EEQD98YzqtHimO_jsbl0-12" value="&lt;div&gt;Server App&lt;/div&gt;&lt;div&gt;Express JS&lt;br&gt;&lt;/div&gt;" style="rounded=0;whiteSpace=wrap;html=1;fillColor=#ffe6cc;strokeColor=#d79b00;" vertex="1" parent="EEQD98YzqtHimO_jsbl0-13">
          <mxGeometry x="120" y="150" width="120" height="60" as="geometry" />
        </mxCell>
        <mxCell id="EEQD98YzqtHimO_jsbl0-16" value="&lt;div&gt;Route Layer&lt;/div&gt;Express JS" style="rounded=0;whiteSpace=wrap;html=1;fillColor=#ffe6cc;strokeColor=#d79b00;" vertex="1" parent="EEQD98YzqtHimO_jsbl0-13">
          <mxGeometry x="290" y="150" width="120" height="60" as="geometry" />
        </mxCell>
        <mxCell id="EEQD98YzqtHimO_jsbl0-17" value="" style="endArrow=classic;html=1;rounded=0;entryX=0;entryY=0.5;entryDx=0;entryDy=0;exitX=1;exitY=0.5;exitDx=0;exitDy=0;" edge="1" parent="EEQD98YzqtHimO_jsbl0-13" source="EEQD98YzqtHimO_jsbl0-12" target="EEQD98YzqtHimO_jsbl0-16">
          <mxGeometry width="50" height="50" relative="1" as="geometry">
            <mxPoint x="340" y="330" as="sourcePoint" />
            <mxPoint x="390" y="280" as="targetPoint" />
          </mxGeometry>
        </mxCell>
        <mxCell id="EEQD98YzqtHimO_jsbl0-18" value="&lt;div&gt;Middleware&lt;/div&gt;&lt;div&gt;ExpressJS&lt;br&gt;&lt;/div&gt;" style="rounded=0;whiteSpace=wrap;html=1;fillColor=#ffe6cc;strokeColor=#d79b00;" vertex="1" parent="EEQD98YzqtHimO_jsbl0-13">
          <mxGeometry x="460" y="150" width="120" height="60" as="geometry" />
        </mxCell>
        <mxCell id="EEQD98YzqtHimO_jsbl0-19" value="" style="endArrow=classic;html=1;rounded=0;exitX=1;exitY=0.5;exitDx=0;exitDy=0;entryX=0;entryY=0.5;entryDx=0;entryDy=0;" edge="1" parent="EEQD98YzqtHimO_jsbl0-13" source="EEQD98YzqtHimO_jsbl0-16" target="EEQD98YzqtHimO_jsbl0-18">
          <mxGeometry width="50" height="50" relative="1" as="geometry">
            <mxPoint x="440" y="179.55" as="sourcePoint" />
            <mxPoint x="470" y="200" as="targetPoint" />
          </mxGeometry>
        </mxCell>
        <mxCell id="EEQD98YzqtHimO_jsbl0-23" value="Controller Layer" style="rounded=0;whiteSpace=wrap;html=1;fillColor=#ffe6cc;strokeColor=#d79b00;" vertex="1" parent="EEQD98YzqtHimO_jsbl0-13">
          <mxGeometry x="290" y="260" width="120" height="60" as="geometry" />
        </mxCell>
        <mxCell id="EEQD98YzqtHimO_jsbl0-24" value="" style="endArrow=classic;html=1;rounded=0;exitX=0.5;exitY=1;exitDx=0;exitDy=0;entryX=0.5;entryY=0;entryDx=0;entryDy=0;" edge="1" parent="EEQD98YzqtHimO_jsbl0-13" source="EEQD98YzqtHimO_jsbl0-16" target="EEQD98YzqtHimO_jsbl0-23">
          <mxGeometry width="50" height="50" relative="1" as="geometry">
            <mxPoint x="330" y="370" as="sourcePoint" />
            <mxPoint x="380" y="320" as="targetPoint" />
          </mxGeometry>
        </mxCell>
        <mxCell id="EEQD98YzqtHimO_jsbl0-25" value="" style="endArrow=classic;html=1;rounded=0;exitX=0.5;exitY=1;exitDx=0;exitDy=0;entryX=1;entryY=0.5;entryDx=0;entryDy=0;" edge="1" parent="EEQD98YzqtHimO_jsbl0-13" source="EEQD98YzqtHimO_jsbl0-18" target="EEQD98YzqtHimO_jsbl0-23">
          <mxGeometry width="50" height="50" relative="1" as="geometry">
            <mxPoint x="330" y="370" as="sourcePoint" />
            <mxPoint x="380" y="320" as="targetPoint" />
            <Array as="points">
              <mxPoint x="520" y="290" />
            </Array>
          </mxGeometry>
        </mxCell>
        <mxCell id="EEQD98YzqtHimO_jsbl0-29" value="API Error" style="rounded=0;whiteSpace=wrap;html=1;fillColor=#f8cecc;strokeColor=#b85450;" vertex="1" parent="EEQD98YzqtHimO_jsbl0-13">
          <mxGeometry x="110" y="295" width="70" height="25" as="geometry" />
        </mxCell>
        <mxCell id="EEQD98YzqtHimO_jsbl0-28" value="" style="endArrow=classic;html=1;rounded=0;exitX=0;exitY=0.75;exitDx=0;exitDy=0;" edge="1" parent="EEQD98YzqtHimO_jsbl0-13" source="EEQD98YzqtHimO_jsbl0-23" target="EEQD98YzqtHimO_jsbl0-29">
          <mxGeometry width="50" height="50" relative="1" as="geometry">
            <mxPoint x="90" y="320" as="sourcePoint" />
            <mxPoint x="170" y="305" as="targetPoint" />
          </mxGeometry>
        </mxCell>
        <mxCell id="EEQD98YzqtHimO_jsbl0-32" value="Service Layer" style="rounded=0;whiteSpace=wrap;html=1;fillColor=#ffe6cc;strokeColor=#d79b00;" vertex="1" parent="EEQD98YzqtHimO_jsbl0-13">
          <mxGeometry x="290" y="360" width="120" height="60" as="geometry" />
        </mxCell>
        <mxCell id="EEQD98YzqtHimO_jsbl0-33" value="" style="endArrow=classic;html=1;rounded=0;entryX=0.25;entryY=0;entryDx=0;entryDy=0;exitX=0.25;exitY=1;exitDx=0;exitDy=0;" edge="1" parent="EEQD98YzqtHimO_jsbl0-13" source="EEQD98YzqtHimO_jsbl0-23" target="EEQD98YzqtHimO_jsbl0-32">
          <mxGeometry width="50" height="50" relative="1" as="geometry">
            <mxPoint x="200" y="340" as="sourcePoint" />
            <mxPoint x="250" y="290" as="targetPoint" />
          </mxGeometry>
        </mxCell>
        <mxCell id="EEQD98YzqtHimO_jsbl0-34" value="" style="endArrow=classic;html=1;rounded=0;exitX=0.75;exitY=0;exitDx=0;exitDy=0;entryX=0.75;entryY=1;entryDx=0;entryDy=0;" edge="1" parent="EEQD98YzqtHimO_jsbl0-13" source="EEQD98YzqtHimO_jsbl0-32" target="EEQD98YzqtHimO_jsbl0-23">
          <mxGeometry width="50" height="50" relative="1" as="geometry">
            <mxPoint x="380" y="320" as="sourcePoint" />
            <mxPoint x="440" y="340" as="targetPoint" />
          </mxGeometry>
        </mxCell>
        <mxCell id="EEQD98YzqtHimO_jsbl0-35" value="&lt;div&gt;DAO Layer&lt;/div&gt;&lt;div&gt;Data Access Object&lt;br&gt;&lt;/div&gt;" style="rounded=0;whiteSpace=wrap;html=1;fillColor=#ffe6cc;strokeColor=#d79b00;" vertex="1" parent="EEQD98YzqtHimO_jsbl0-13">
          <mxGeometry x="290" y="460" width="120" height="60" as="geometry" />
        </mxCell>
        <mxCell id="EEQD98YzqtHimO_jsbl0-36" value="" style="endArrow=classic;html=1;rounded=0;entryX=0.25;entryY=0;entryDx=0;entryDy=0;exitX=0.25;exitY=1;exitDx=0;exitDy=0;" edge="1" parent="EEQD98YzqtHimO_jsbl0-13" target="EEQD98YzqtHimO_jsbl0-35">
          <mxGeometry width="50" height="50" relative="1" as="geometry">
            <mxPoint x="320" y="420" as="sourcePoint" />
            <mxPoint x="250" y="390" as="targetPoint" />
          </mxGeometry>
        </mxCell>
        <mxCell id="EEQD98YzqtHimO_jsbl0-37" value="" style="endArrow=classic;html=1;rounded=0;exitX=0.75;exitY=0;exitDx=0;exitDy=0;entryX=0.75;entryY=1;entryDx=0;entryDy=0;" edge="1" parent="EEQD98YzqtHimO_jsbl0-13" source="EEQD98YzqtHimO_jsbl0-35">
          <mxGeometry width="50" height="50" relative="1" as="geometry">
            <mxPoint x="380" y="420" as="sourcePoint" />
            <mxPoint x="380" y="420" as="targetPoint" />
          </mxGeometry>
        </mxCell>
        <mxCell id="EEQD98YzqtHimO_jsbl0-14" value="" style="endArrow=classic;html=1;rounded=0;entryX=0;entryY=0.5;entryDx=0;entryDy=0;exitX=1;exitY=0.5;exitDx=0;exitDy=0;" edge="1" parent="1" source="EEQD98YzqtHimO_jsbl0-5" target="EEQD98YzqtHimO_jsbl0-12">
          <mxGeometry width="50" height="50" relative="1" as="geometry">
            <mxPoint x="670" y="490" as="sourcePoint" />
            <mxPoint x="720" y="440" as="targetPoint" />
          </mxGeometry>
        </mxCell>
        <mxCell id="EEQD98YzqtHimO_jsbl0-15" value="HTTP Requests" style="edgeLabel;html=1;align=center;verticalAlign=middle;resizable=0;points=[];" vertex="1" connectable="0" parent="EEQD98YzqtHimO_jsbl0-14">
          <mxGeometry x="0.3097" relative="1" as="geometry">
            <mxPoint as="offset" />
          </mxGeometry>
        </mxCell>
        <mxCell id="EEQD98YzqtHimO_jsbl0-26" value="" style="endArrow=classic;html=1;rounded=0;exitX=0;exitY=0.25;exitDx=0;exitDy=0;entryX=0.75;entryY=1;entryDx=0;entryDy=0;" edge="1" parent="1" source="EEQD98YzqtHimO_jsbl0-23" target="EEQD98YzqtHimO_jsbl0-5">
          <mxGeometry width="50" height="50" relative="1" as="geometry">
            <mxPoint x="740" y="560" as="sourcePoint" />
            <mxPoint x="390" y="500" as="targetPoint" />
            <Array as="points">
              <mxPoint x="400" y="505" />
            </Array>
          </mxGeometry>
        </mxCell>
        <mxCell id="EEQD98YzqtHimO_jsbl0-27" value="HTTP Response 200, 201, 204" style="edgeLabel;html=1;align=center;verticalAlign=middle;resizable=0;points=[];" vertex="1" connectable="0" parent="EEQD98YzqtHimO_jsbl0-26">
          <mxGeometry x="0.0577" y="-1" relative="1" as="geometry">
            <mxPoint x="86" as="offset" />
          </mxGeometry>
        </mxCell>
        <mxCell id="EEQD98YzqtHimO_jsbl0-30" value="" style="endArrow=classic;html=1;rounded=0;exitX=0;exitY=0.5;exitDx=0;exitDy=0;entryX=0.25;entryY=1;entryDx=0;entryDy=0;" edge="1" parent="1" source="EEQD98YzqtHimO_jsbl0-29" target="EEQD98YzqtHimO_jsbl0-5">
          <mxGeometry width="50" height="50" relative="1" as="geometry">
            <mxPoint x="640" y="600" as="sourcePoint" />
            <mxPoint x="340" y="538" as="targetPoint" />
            <Array as="points">
              <mxPoint x="340" y="538" />
            </Array>
          </mxGeometry>
        </mxCell>
        <mxCell id="EEQD98YzqtHimO_jsbl0-31" value="HTTP Response 400, 401, 404, 500" style="edgeLabel;html=1;align=center;verticalAlign=middle;resizable=0;points=[];" vertex="1" connectable="0" parent="EEQD98YzqtHimO_jsbl0-30">
          <mxGeometry x="-0.541" relative="1" as="geometry">
            <mxPoint x="-163" as="offset" />
          </mxGeometry>
        </mxCell>
        <mxCell id="EEQD98YzqtHimO_jsbl0-39" value="" style="endArrow=classic;html=1;rounded=0;entryX=1;entryY=0.25;entryDx=0;entryDy=0;exitX=0;exitY=0.25;exitDx=0;exitDy=0;" edge="1" parent="1" source="EEQD98YzqtHimO_jsbl0-35" target="EEQD98YzqtHimO_jsbl0-38">
          <mxGeometry width="50" height="50" relative="1" as="geometry">
            <mxPoint x="530" y="710" as="sourcePoint" />
            <mxPoint x="580" y="660" as="targetPoint" />
          </mxGeometry>
        </mxCell>
        <mxCell id="EEQD98YzqtHimO_jsbl0-41" value="SQL Query" style="edgeLabel;html=1;align=center;verticalAlign=middle;resizable=0;points=[];" vertex="1" connectable="0" parent="EEQD98YzqtHimO_jsbl0-39">
          <mxGeometry x="0.0181" y="3" relative="1" as="geometry">
            <mxPoint as="offset" />
          </mxGeometry>
        </mxCell>
        <mxCell id="EEQD98YzqtHimO_jsbl0-40" value="" style="endArrow=classic;html=1;rounded=0;exitX=1;exitY=0.75;exitDx=0;exitDy=0;entryX=0;entryY=0.75;entryDx=0;entryDy=0;" edge="1" parent="1" source="EEQD98YzqtHimO_jsbl0-38" target="EEQD98YzqtHimO_jsbl0-35">
          <mxGeometry width="50" height="50" relative="1" as="geometry">
            <mxPoint x="530" y="710" as="sourcePoint" />
            <mxPoint x="580" y="660" as="targetPoint" />
          </mxGeometry>
        </mxCell>
        <mxCell id="EEQD98YzqtHimO_jsbl0-42" value="Returned Results" style="edgeLabel;html=1;align=center;verticalAlign=middle;resizable=0;points=[];" vertex="1" connectable="0" parent="EEQD98YzqtHimO_jsbl0-40">
          <mxGeometry x="-0.0439" relative="1" as="geometry">
            <mxPoint as="offset" />
          </mxGeometry>
        </mxCell>
        <mxCell id="EEQD98YzqtHimO_jsbl0-43" value="&lt;font style=&quot;font-size: 18px;&quot;&gt;Spendr Client Server Architecture&lt;/font&gt;" style="text;html=1;strokeColor=none;fillColor=none;align=center;verticalAlign=middle;whiteSpace=wrap;rounded=0;" vertex="1" parent="1">
          <mxGeometry x="600" y="180" width="300" height="30" as="geometry" />
        </mxCell>
      </root>
    </mxGraphModel>
  </diagram>
</mxfile>
